<mxfile host="app.diagrams.net" modified="2023-06-06T14:33:59.853Z" agent="Mozilla/5.0 (Windows NT 10.0; Win64; x64) AppleWebKit/537.36 (KHTML, like Gecko) Chrome/114.0.0.0 Safari/537.36" etag="EljXsu-_r0wFfgpYyYeD" version="21.3.7" type="device">
  <diagram id="piDafpqhtRUU5qUU-vj8" name="Page-1">
    <mxGraphModel dx="1165" dy="217" grid="1" gridSize="10" guides="1" tooltips="1" connect="1" arrows="1" fold="1" page="1" pageScale="1" pageWidth="827" pageHeight="1169" math="0" shadow="0">
      <root>
        <mxCell id="0" />
        <mxCell id="1" parent="0" />
        <mxCell id="f2cM58idHqmNsdKKK0xZ-3" value="" style="rounded=0;whiteSpace=wrap;html=1;shadow=1;" parent="1" vertex="1">
          <mxGeometry x="-530" y="280" width="1480" height="140" as="geometry" />
        </mxCell>
        <mxCell id="f2cM58idHqmNsdKKK0xZ-4" value="" style="rounded=1;whiteSpace=wrap;html=1;arcSize=6;shadow=1;" parent="1" vertex="1">
          <mxGeometry x="-280" y="490" width="1000" height="740" as="geometry" />
        </mxCell>
        <mxCell id="f2cM58idHqmNsdKKK0xZ-8" value="&lt;font style=&quot;font-size: 48px;&quot;&gt;Welcome to Family Room&lt;/font&gt;" style="text;html=1;strokeColor=none;fillColor=none;align=center;verticalAlign=middle;whiteSpace=wrap;rounded=0;" parent="1" vertex="1">
          <mxGeometry x="-65" y="830" width="580" height="150" as="geometry" />
        </mxCell>
        <mxCell id="f2cM58idHqmNsdKKK0xZ-20" value="&lt;font style=&quot;font-size: 48px;&quot;&gt;&lt;b&gt;Kyn&lt;/b&gt;&lt;/font&gt;" style="text;html=1;strokeColor=none;fillColor=none;align=center;verticalAlign=middle;whiteSpace=wrap;rounded=0;" parent="1" vertex="1">
          <mxGeometry x="-560" y="330" width="360" height="40" as="geometry" />
        </mxCell>
        <mxCell id="f2cM58idHqmNsdKKK0xZ-21" value="&lt;font style=&quot;font-size: 24px;&quot;&gt;Home&lt;/font&gt;" style="text;html=1;strokeColor=none;fillColor=none;align=center;verticalAlign=middle;whiteSpace=wrap;rounded=0;" parent="1" vertex="1">
          <mxGeometry x="-300" y="340" width="130" height="25" as="geometry" />
        </mxCell>
        <mxCell id="f2cM58idHqmNsdKKK0xZ-22" value="&lt;font style=&quot;font-size: 24px;&quot;&gt;About&lt;/font&gt;" style="text;html=1;strokeColor=none;fillColor=none;align=center;verticalAlign=middle;whiteSpace=wrap;rounded=0;" parent="1" vertex="1">
          <mxGeometry x="-217" y="343.5" width="130" height="22.5" as="geometry" />
        </mxCell>
        <mxCell id="f2cM58idHqmNsdKKK0xZ-23" value="&lt;font style=&quot;font-size: 24px;&quot;&gt;Contact&lt;/font&gt;" style="text;html=1;strokeColor=none;fillColor=none;align=center;verticalAlign=middle;whiteSpace=wrap;rounded=0;" parent="1" vertex="1">
          <mxGeometry x="-126" y="343.5" width="130" height="22.5" as="geometry" />
        </mxCell>
        <mxCell id="f2cM58idHqmNsdKKK0xZ-28" value="" style="rounded=1;whiteSpace=wrap;html=1;arcSize=21;" parent="1" vertex="1">
          <mxGeometry x="770" y="320.13" width="140" height="59.75" as="geometry" />
        </mxCell>
        <mxCell id="f2cM58idHqmNsdKKK0xZ-29" value="&lt;font style=&quot;font-size: 24px;&quot;&gt;Logout&lt;/font&gt;" style="text;html=1;strokeColor=none;fillColor=none;align=center;verticalAlign=middle;whiteSpace=wrap;rounded=0;" parent="1" vertex="1">
          <mxGeometry x="770" y="340" width="130" height="22.5" as="geometry" />
        </mxCell>
        <mxCell id="f2cM58idHqmNsdKKK0xZ-31" value="" style="rounded=0;whiteSpace=wrap;html=1;shadow=1;fillColor=#f5f5f5;gradientColor=#b3b3b3;strokeColor=#666666;" parent="1" vertex="1">
          <mxGeometry x="-530" y="1310" width="1480" height="210" as="geometry" />
        </mxCell>
        <mxCell id="f2cM58idHqmNsdKKK0xZ-33" value="&lt;font style=&quot;font-size: 48px;&quot;&gt;Footer&lt;/font&gt;" style="text;html=1;strokeColor=none;fillColor=none;align=center;verticalAlign=middle;whiteSpace=wrap;rounded=0;" parent="1" vertex="1">
          <mxGeometry x="-560" y="1395" width="360" height="40" as="geometry" />
        </mxCell>
        <mxCell id="f2cM58idHqmNsdKKK0xZ-34" value="" style="rounded=0;whiteSpace=wrap;html=1;shadow=1;" parent="1" vertex="1">
          <mxGeometry x="-540" y="2190" width="1480" height="140" as="geometry" />
        </mxCell>
        <mxCell id="f2cM58idHqmNsdKKK0xZ-35" value="" style="rounded=1;whiteSpace=wrap;html=1;arcSize=6;shadow=1;" parent="1" vertex="1">
          <mxGeometry x="-460" y="2400" width="1310" height="740" as="geometry" />
        </mxCell>
        <mxCell id="f2cM58idHqmNsdKKK0xZ-36" value="" style="rounded=1;whiteSpace=wrap;html=1;arcSize=21;shadow=1;" parent="1" vertex="1">
          <mxGeometry x="-400" y="2578" width="500" height="70" as="geometry" />
        </mxCell>
        <mxCell id="f2cM58idHqmNsdKKK0xZ-37" value="" style="rounded=1;whiteSpace=wrap;html=1;arcSize=21;shadow=1;" parent="1" vertex="1">
          <mxGeometry x="-400" y="2682" width="500" height="70" as="geometry" />
        </mxCell>
        <mxCell id="f2cM58idHqmNsdKKK0xZ-38" value="" style="rounded=1;whiteSpace=wrap;html=1;arcSize=21;fillColor=#0050ef;strokeColor=#001DBC;fontColor=#ffffff;shadow=1;" parent="1" vertex="1">
          <mxGeometry x="-400" y="2923" width="500" height="70" as="geometry" />
        </mxCell>
        <mxCell id="f2cM58idHqmNsdKKK0xZ-39" value="&lt;font style=&quot;font-size: 48px;&quot;&gt;Register&lt;/font&gt;" style="text;html=1;strokeColor=none;fillColor=none;align=center;verticalAlign=middle;whiteSpace=wrap;rounded=0;" parent="1" vertex="1">
          <mxGeometry x="-346" y="2490" width="360" height="40" as="geometry" />
        </mxCell>
        <mxCell id="f2cM58idHqmNsdKKK0xZ-40" value="&lt;font style=&quot;font-size: 24px;&quot;&gt;Your Name&lt;/font&gt;" style="text;html=1;strokeColor=none;fillColor=none;align=center;verticalAlign=middle;whiteSpace=wrap;rounded=0;" parent="1" vertex="1">
          <mxGeometry x="-491" y="2593" width="360" height="40" as="geometry" />
        </mxCell>
        <mxCell id="f2cM58idHqmNsdKKK0xZ-41" value="&lt;font style=&quot;font-size: 24px;&quot;&gt;Email&lt;/font&gt;" style="text;html=1;strokeColor=none;fillColor=none;align=center;verticalAlign=middle;whiteSpace=wrap;rounded=0;" parent="1" vertex="1">
          <mxGeometry x="-517" y="2697" width="360" height="40" as="geometry" />
        </mxCell>
        <mxCell id="f2cM58idHqmNsdKKK0xZ-42" value="" style="verticalLabelPosition=bottom;shadow=0;dashed=0;align=center;html=1;verticalAlign=top;strokeWidth=1;shape=mxgraph.mockup.graphics.simpleIcon;strokeColor=#999999;" parent="1" vertex="1">
          <mxGeometry x="365" y="2490" width="395" height="440" as="geometry" />
        </mxCell>
        <mxCell id="f2cM58idHqmNsdKKK0xZ-43" value="&lt;font style=&quot;font-size: 24px;&quot;&gt;Create an account&lt;/font&gt;" style="text;html=1;strokeColor=none;fillColor=none;align=center;verticalAlign=middle;whiteSpace=wrap;rounded=0;" parent="1" vertex="1">
          <mxGeometry x="382.5" y="2970" width="360" height="40" as="geometry" />
        </mxCell>
        <mxCell id="f2cM58idHqmNsdKKK0xZ-48" value="&lt;font style=&quot;font-size: 48px;&quot;&gt;&lt;b&gt;Kyn&lt;/b&gt;&lt;/font&gt;" style="text;html=1;strokeColor=none;fillColor=none;align=center;verticalAlign=middle;whiteSpace=wrap;rounded=0;" parent="1" vertex="1">
          <mxGeometry x="-570" y="2240" width="360" height="40" as="geometry" />
        </mxCell>
        <mxCell id="f2cM58idHqmNsdKKK0xZ-49" value="&lt;font style=&quot;font-size: 24px;&quot;&gt;Home&lt;/font&gt;" style="text;html=1;strokeColor=none;fillColor=none;align=center;verticalAlign=middle;whiteSpace=wrap;rounded=0;" parent="1" vertex="1">
          <mxGeometry x="-310" y="2250" width="130" height="25" as="geometry" />
        </mxCell>
        <mxCell id="f2cM58idHqmNsdKKK0xZ-50" value="&lt;font style=&quot;font-size: 24px;&quot;&gt;About&lt;/font&gt;" style="text;html=1;strokeColor=none;fillColor=none;align=center;verticalAlign=middle;whiteSpace=wrap;rounded=0;" parent="1" vertex="1">
          <mxGeometry x="-227" y="2253.5" width="130" height="22.5" as="geometry" />
        </mxCell>
        <mxCell id="f2cM58idHqmNsdKKK0xZ-51" value="&lt;font style=&quot;font-size: 24px;&quot;&gt;Contact&lt;/font&gt;" style="text;html=1;strokeColor=none;fillColor=none;align=center;verticalAlign=middle;whiteSpace=wrap;rounded=0;" parent="1" vertex="1">
          <mxGeometry x="-136" y="2253.5" width="130" height="22.5" as="geometry" />
        </mxCell>
        <mxCell id="f2cM58idHqmNsdKKK0xZ-52" value="&lt;font style=&quot;font-size: 24px;&quot;&gt;Login&lt;/font&gt;" style="text;html=1;strokeColor=none;fillColor=none;align=center;verticalAlign=middle;whiteSpace=wrap;rounded=0;" parent="1" vertex="1">
          <mxGeometry x="-43" y="2254" width="130" height="22.5" as="geometry" />
        </mxCell>
        <mxCell id="f2cM58idHqmNsdKKK0xZ-53" value="&lt;font style=&quot;font-size: 24px;&quot;&gt;Register&lt;/font&gt;" style="text;html=1;strokeColor=none;fillColor=none;align=center;verticalAlign=middle;whiteSpace=wrap;rounded=0;" parent="1" vertex="1">
          <mxGeometry x="50" y="2253.75" width="130" height="22.5" as="geometry" />
        </mxCell>
        <mxCell id="f2cM58idHqmNsdKKK0xZ-55" value="" style="rounded=1;whiteSpace=wrap;html=1;arcSize=21;" parent="1" vertex="1">
          <mxGeometry x="760" y="2230.13" width="140" height="59.75" as="geometry" />
        </mxCell>
        <mxCell id="f2cM58idHqmNsdKKK0xZ-56" value="&lt;font style=&quot;font-size: 24px;&quot;&gt;Logout&lt;/font&gt;" style="text;html=1;strokeColor=none;fillColor=none;align=center;verticalAlign=middle;whiteSpace=wrap;rounded=0;" parent="1" vertex="1">
          <mxGeometry x="760" y="2250" width="130" height="22.5" as="geometry" />
        </mxCell>
        <mxCell id="f2cM58idHqmNsdKKK0xZ-57" value="&lt;span style=&quot;font-size: 24px;&quot;&gt;&lt;b&gt;&lt;font color=&quot;#ffffff&quot;&gt;Register&lt;/font&gt;&lt;/b&gt;&lt;/span&gt;" style="text;html=1;strokeColor=none;fillColor=none;align=center;verticalAlign=middle;whiteSpace=wrap;rounded=0;" parent="1" vertex="1">
          <mxGeometry x="-330" y="2938" width="360" height="40" as="geometry" />
        </mxCell>
        <mxCell id="f2cM58idHqmNsdKKK0xZ-58" value="" style="rounded=0;whiteSpace=wrap;html=1;shadow=1;fillColor=#f5f5f5;gradientColor=#b3b3b3;strokeColor=#666666;" parent="1" vertex="1">
          <mxGeometry x="-540" y="3220" width="1480" height="210" as="geometry" />
        </mxCell>
        <mxCell id="f2cM58idHqmNsdKKK0xZ-59" value="&lt;font style=&quot;font-size: 48px;&quot;&gt;Footer&lt;/font&gt;" style="text;html=1;strokeColor=none;fillColor=none;align=center;verticalAlign=middle;whiteSpace=wrap;rounded=0;" parent="1" vertex="1">
          <mxGeometry x="-570" y="3305" width="360" height="40" as="geometry" />
        </mxCell>
        <mxCell id="f2cM58idHqmNsdKKK0xZ-61" value="" style="rounded=1;whiteSpace=wrap;html=1;arcSize=21;shadow=1;" parent="1" vertex="1">
          <mxGeometry x="-400" y="2780" width="500" height="70" as="geometry" />
        </mxCell>
        <mxCell id="f2cM58idHqmNsdKKK0xZ-62" value="&lt;font style=&quot;font-size: 24px;&quot;&gt;Password&lt;/font&gt;" style="text;html=1;strokeColor=none;fillColor=none;align=center;verticalAlign=middle;whiteSpace=wrap;rounded=0;" parent="1" vertex="1">
          <mxGeometry x="-491" y="2795" width="360" height="40" as="geometry" />
        </mxCell>
        <mxCell id="f2cM58idHqmNsdKKK0xZ-63" style="edgeStyle=orthogonalEdgeStyle;rounded=0;orthogonalLoop=1;jettySize=auto;html=1;exitX=0.5;exitY=1;exitDx=0;exitDy=0;" parent="1" source="f2cM58idHqmNsdKKK0xZ-43" target="f2cM58idHqmNsdKKK0xZ-43" edge="1">
          <mxGeometry relative="1" as="geometry" />
        </mxCell>
        <mxCell id="6nYZbs3I-eiEpvFgtfFX-1" value="" style="ellipse;whiteSpace=wrap;html=1;aspect=fixed;fillColor=#f5f5f5;fontColor=#333333;strokeColor=#666666;" vertex="1" parent="1">
          <mxGeometry x="90" y="570" width="270" height="270" as="geometry" />
        </mxCell>
        <mxCell id="6nYZbs3I-eiEpvFgtfFX-2" value="&lt;font style=&quot;font-size: 48px;&quot;&gt;kemal@gmail.com&lt;/font&gt;" style="text;html=1;strokeColor=none;fillColor=none;align=center;verticalAlign=middle;whiteSpace=wrap;rounded=0;" vertex="1" parent="1">
          <mxGeometry x="-61" y="900" width="580" height="150" as="geometry" />
        </mxCell>
        <mxCell id="6nYZbs3I-eiEpvFgtfFX-3" value="User" style="shape=umlActor;verticalLabelPosition=bottom;verticalAlign=top;html=1;outlineConnect=0;" vertex="1" parent="1">
          <mxGeometry x="1112.5" y="560" width="55" height="60" as="geometry" />
        </mxCell>
        <mxCell id="6nYZbs3I-eiEpvFgtfFX-4" value="KYN website" style="rounded=0;whiteSpace=wrap;html=1;" vertex="1" parent="1">
          <mxGeometry x="1080" y="670" width="120" height="50" as="geometry" />
        </mxCell>
        <mxCell id="6nYZbs3I-eiEpvFgtfFX-5" value="Sign in With Google&lt;br&gt;or Facebook" style="rounded=0;whiteSpace=wrap;html=1;" vertex="1" parent="1">
          <mxGeometry x="1241" y="670" width="120" height="50" as="geometry" />
        </mxCell>
        <mxCell id="6nYZbs3I-eiEpvFgtfFX-6" value="Login with google of facebook credential" style="rounded=0;whiteSpace=wrap;html=1;" vertex="1" parent="1">
          <mxGeometry x="1400" y="670" width="120" height="50" as="geometry" />
        </mxCell>
        <mxCell id="6nYZbs3I-eiEpvFgtfFX-7" value="google and facebook ask permisson&amp;nbsp;" style="rounded=0;whiteSpace=wrap;html=1;" vertex="1" parent="1">
          <mxGeometry x="1400" y="760" width="120" height="50" as="geometry" />
        </mxCell>
        <mxCell id="6nYZbs3I-eiEpvFgtfFX-8" value="Google and facebook will direct to kyn website code&amp;nbsp;" style="rounded=0;whiteSpace=wrap;html=1;" vertex="1" parent="1">
          <mxGeometry x="1241" y="760" width="120" height="50" as="geometry" />
        </mxCell>
        <mxCell id="6nYZbs3I-eiEpvFgtfFX-9" value="the website using autentication code to get acces token" style="rounded=0;whiteSpace=wrap;html=1;" vertex="1" parent="1">
          <mxGeometry x="1080" y="760" width="120" height="50" as="geometry" />
        </mxCell>
        <mxCell id="6nYZbs3I-eiEpvFgtfFX-10" value="kyn website get limit acces&amp;nbsp; to user&amp;nbsp; information&amp;nbsp;&amp;nbsp;" style="rounded=0;whiteSpace=wrap;html=1;" vertex="1" parent="1">
          <mxGeometry x="1080" y="850" width="120" height="50" as="geometry" />
        </mxCell>
        <mxCell id="6nYZbs3I-eiEpvFgtfFX-14" value="" style="endArrow=classic;html=1;rounded=0;entryX=0.5;entryY=0;entryDx=0;entryDy=0;" edge="1" parent="1" target="6nYZbs3I-eiEpvFgtfFX-4">
          <mxGeometry width="50" height="50" relative="1" as="geometry">
            <mxPoint x="1140" y="640" as="sourcePoint" />
            <mxPoint x="1070" y="620" as="targetPoint" />
          </mxGeometry>
        </mxCell>
        <mxCell id="6nYZbs3I-eiEpvFgtfFX-16" value="" style="endArrow=classic;html=1;rounded=0;exitX=1;exitY=0.5;exitDx=0;exitDy=0;entryX=0;entryY=0.5;entryDx=0;entryDy=0;" edge="1" parent="1" source="6nYZbs3I-eiEpvFgtfFX-4" target="6nYZbs3I-eiEpvFgtfFX-5">
          <mxGeometry width="50" height="50" relative="1" as="geometry">
            <mxPoint x="1180" y="710" as="sourcePoint" />
            <mxPoint x="1240" y="700" as="targetPoint" />
          </mxGeometry>
        </mxCell>
        <mxCell id="6nYZbs3I-eiEpvFgtfFX-22" value="click" style="edgeLabel;html=1;align=center;verticalAlign=middle;resizable=0;points=[];" vertex="1" connectable="0" parent="6nYZbs3I-eiEpvFgtfFX-16">
          <mxGeometry x="-0.2545" relative="1" as="geometry">
            <mxPoint as="offset" />
          </mxGeometry>
        </mxCell>
        <mxCell id="6nYZbs3I-eiEpvFgtfFX-17" value="" style="endArrow=classic;html=1;rounded=0;exitX=1;exitY=0.5;exitDx=0;exitDy=0;entryX=0;entryY=0.5;entryDx=0;entryDy=0;" edge="1" parent="1">
          <mxGeometry width="50" height="50" relative="1" as="geometry">
            <mxPoint x="1361" y="694.55" as="sourcePoint" />
            <mxPoint x="1402" y="694.55" as="targetPoint" />
          </mxGeometry>
        </mxCell>
        <mxCell id="6nYZbs3I-eiEpvFgtfFX-18" value="" style="endArrow=classic;html=1;rounded=0;exitX=0.5;exitY=1;exitDx=0;exitDy=0;entryX=0.5;entryY=0;entryDx=0;entryDy=0;" edge="1" parent="1" source="6nYZbs3I-eiEpvFgtfFX-6" target="6nYZbs3I-eiEpvFgtfFX-7">
          <mxGeometry width="50" height="50" relative="1" as="geometry">
            <mxPoint x="1371" y="704.55" as="sourcePoint" />
            <mxPoint x="1412" y="704.55" as="targetPoint" />
          </mxGeometry>
        </mxCell>
        <mxCell id="6nYZbs3I-eiEpvFgtfFX-19" value="" style="endArrow=classic;html=1;rounded=0;exitX=0;exitY=0.5;exitDx=0;exitDy=0;entryX=1;entryY=0.5;entryDx=0;entryDy=0;" edge="1" parent="1" source="6nYZbs3I-eiEpvFgtfFX-7" target="6nYZbs3I-eiEpvFgtfFX-8">
          <mxGeometry width="50" height="50" relative="1" as="geometry">
            <mxPoint x="1470" y="730" as="sourcePoint" />
            <mxPoint x="1470" y="770" as="targetPoint" />
          </mxGeometry>
        </mxCell>
        <mxCell id="6nYZbs3I-eiEpvFgtfFX-20" value="" style="endArrow=classic;html=1;rounded=0;entryX=1;entryY=0.5;entryDx=0;entryDy=0;" edge="1" parent="1" target="6nYZbs3I-eiEpvFgtfFX-9">
          <mxGeometry width="50" height="50" relative="1" as="geometry">
            <mxPoint x="1240" y="785" as="sourcePoint" />
            <mxPoint x="1371" y="795" as="targetPoint" />
          </mxGeometry>
        </mxCell>
        <mxCell id="6nYZbs3I-eiEpvFgtfFX-21" value="" style="endArrow=classic;html=1;rounded=0;entryX=0.5;entryY=0;entryDx=0;entryDy=0;exitX=0.5;exitY=1;exitDx=0;exitDy=0;" edge="1" parent="1" source="6nYZbs3I-eiEpvFgtfFX-9" target="6nYZbs3I-eiEpvFgtfFX-10">
          <mxGeometry width="50" height="50" relative="1" as="geometry">
            <mxPoint x="1250" y="795" as="sourcePoint" />
            <mxPoint x="1210" y="795" as="targetPoint" />
          </mxGeometry>
        </mxCell>
      </root>
    </mxGraphModel>
  </diagram>
</mxfile>
